<svg width="72" height="71" viewBox="0 0 72 71" fill="none" xmlns="http://www.w3.org/2000/svg">
<path d="M61.1729 36.1374C61.3816 29.4629 58.9789 23.1066 54.407 18.2393C49.8352 13.3721 43.6416 10.5765 36.9671 10.3675C30.2926 10.1588 23.9363 12.5615 19.069 17.1334C14.2017 21.7052 11.4062 27.8989 11.1972 34.5733C10.9884 41.2478 13.3912 47.6041 17.963 52.4714C22.5349 57.3387 28.7285 60.1342 35.403 60.3432C42.0775 60.552 48.4338 58.1492 53.3011 53.5774C58.1683 49.0055 60.9639 42.8119 61.1729 36.1374ZM27.294 45.7165L36.1202 37.426L44.4108 46.2522L35.5845 54.5428L27.294 45.7165ZM46.5462 44.2465L38.2556 35.4202L47.0819 27.1296L55.3725 35.9559L46.5462 44.2465ZM27.9593 24.4585L36.7856 16.1679L45.0761 24.9942L36.2498 33.2848L27.9593 24.4585Z" fill="#FFDE17"/>
</svg>
