<svg width="38" height="51" viewBox="0 0 38 51" fill="none" xmlns="http://www.w3.org/2000/svg">
<path fill-rule="evenodd" clip-rule="evenodd" d="M11.1374 11.06C11.1374 5.00188 6.27314 0.0908203 0.272705 0.0908203V36.6179C0.272705 39.4698 1.79094 42.1061 4.25769 43.5374L14.9069 49.7165C17.4028 51.1648 20.4853 51.1566 22.9736 49.6951L33.4456 43.5442C35.8916 42.1075 37.3939 39.4829 37.3939 36.6461V26.2476C37.3939 23.3592 35.8369 20.695 33.3202 19.2774L23.3156 13.6419C20.6436 12.1368 17.3464 12.2916 14.8272 14.0405L13.8536 14.7164V25.6855L18.9465 22.9432V22.9081L26.5292 27.4082V35.2835L18.9465 39.727L11.1374 35.5374V11.06Z" fill="white"/>
</svg>
