<svg width="264" height="573" viewBox="0 0 264 573" fill="none" xmlns="http://www.w3.org/2000/svg">
<path fill-rule="evenodd" clip-rule="evenodd" d="M263.899 286.335C263.899 372.548 263.896 458.76 263.907 544.973C263.907 550.24 262.612 555.133 259.802 559.575C255.304 566.683 248.833 570.874 240.545 572.237C239.267 572.447 237.952 572.518 236.654 572.519C167.098 572.532 97.5416 572.533 27.9853 572.527C14.5965 572.526 3.13174 562.751 1.0219 549.524C0.773153 547.965 0.702536 546.363 0.701803 544.781C0.685065 504.179 0.688608 463.578 0.688608 422.976C0.688608 291.235 0.691541 159.493 0.67749 27.7521C0.677002 22.7049 1.79735 17.9721 4.38354 13.6477C8.71928 6.39838 15.0525 1.9456 23.3994 0.458364C24.7552 0.216702 26.1435 0.0416257 27.5176 0.0360057C36.5988 -0.001502 45.6803 0.0115707 54.7618 0.0181681C57.0706 0.0197564 58.3997 1.21817 58.6402 3.50846C58.7331 4.39398 58.7876 5.28696 58.7963 6.17712C58.815 8.07108 59.1026 9.91531 59.8531 11.6551C62.206 17.1094 66.2967 20.3093 72.2309 21.0402C73.2771 21.1691 74.3406 21.2027 75.3961 21.2028C113.758 21.2107 152.12 21.209 190.482 21.2102C193.249 21.2102 195.921 20.7542 198.349 19.3704C203.382 16.5016 206.048 12.165 206.274 6.35354C206.315 5.30027 206.344 4.24407 206.449 3.19655C206.628 1.43698 207.994 0.157692 209.771 0.023666C210.055 0.00228542 210.341 0.0153581 210.626 0.015236C219.219 0.0151138 227.812 0.00766111 236.404 0.0170686C249.414 0.0312409 260.444 8.83284 263.267 21.5207C263.654 23.2555 263.715 25.065 263.888 26.8436C263.95 27.4892 263.899 28.1459 263.899 28.7974C263.899 114.643 263.899 200.489 263.899 286.335Z" fill="#FEFEFE"/>
</svg>
