<svg width="51" height="51" viewBox="0 0 51 51" fill="none" xmlns="http://www.w3.org/2000/svg">
<path d="M43.1805 7.82749C38.5148 3.05009 32.268 0.375387 25.5908 0.296254C18.9135 0.217122 12.6051 2.74303 7.82751 7.40852C3.05011 12.0742 0.375407 18.321 0.296275 24.9982C0.217143 31.6755 2.74305 37.9839 7.40854 42.7615C12.0742 47.5389 18.321 50.2136 24.9983 50.2927C31.6755 50.3719 37.9839 47.846 42.7615 43.1805C47.5389 38.5148 50.2136 32.268 50.2928 25.5908C50.3719 18.9135 47.846 12.6051 43.1805 7.82749ZM26.5984 38.8851L26.7419 26.7766L38.8504 26.9201L38.7069 39.0286L26.5984 38.8851ZM38.8851 23.9906L26.7766 23.8471L26.9201 11.7386L39.0286 11.8821L38.8851 23.9906ZM11.7386 23.6689L11.8821 11.5604L23.9906 11.7039L23.8471 23.8124L11.7386 23.6689ZM23.8124 26.7419L23.6689 38.8504L11.5604 38.7069L11.7039 26.5984L23.8124 26.7419Z" fill="#70D9FF"/>
</svg>
